<svg width="1758" height="1760" xmlns="http://www.w3.org/2000/svg" xmlns:xlink="http://www.w3.org/1999/xlink" xml:space="preserve" overflow="hidden"><defs><filter id="fx0" x="-10%" y="-10%" width="120%" height="120%" filterUnits="userSpaceOnUse" primitiveUnits="userSpaceOnUse"><feComponentTransfer color-interpolation-filters="sRGB"><feFuncR type="discrete" tableValues="0 0"/><feFuncG type="discrete" tableValues="0 0"/><feFuncB type="discrete" tableValues="0 0"/><feFuncA type="linear" slope="0.4" intercept="0"/></feComponentTransfer><feGaussianBlur stdDeviation="6.11111 6.11111"/></filter><clipPath id="clip1"><rect x="2476" y="313" width="1758" height="1760"/></clipPath></defs><g clip-path="url(#clip1)" transform="translate(-2476 -313)"><rect x="2476" y="313" width="1758" height="1760" fill="#FFFFFF" fill-opacity="0"/><path d="M2742 582.43C2742 469.777 2813.02 414 2925.69 414L3817.86 414C3930.53 414 3966 510.402 3966 623.056L3966 1769.02C3966 1881.68 3940.69 1973 3828.02 1973L2874.9 1973C2762.23 1973 2742 1881.68 2742 1769.02L2742 582.43Z" stroke="#999999" stroke-width="13.75" stroke-miterlimit="8" stroke-opacity="0.6" fill="#FFFFFF" fill-rule="evenodd"/><path d="M2753 603.405C2753 492.775 2823.09 438 2934.29 438L3814.8 438C3925.99 438 3961 532.671 3961 643.301L3961 1768.69C3961 1879.32 3936.02 1969 3824.82 1969L2884.16 1969C2772.97 1969 2753 1879.32 2753 1768.69L2753 603.405Z" fill="#F5F5F5" fill-rule="evenodd"/><path d="M2750 1767 3958 1767C3958 1877.46 3933.02 1967 3821.82 1967L2881.16 1967C2769.97 1967 2750 1877.46 2750 1767Z" fill="#F9F9F9" fill-rule="evenodd"/><rect x="2752" y="1199" width="1208" height="568" fill="#F9F9F9"/><g filter="url(#fx0)" transform="translate(3751 422)"><g><path d="M43.0653 210.67C18.3008 217.565 17.8946 115.316 0 20.8411 113.894 17.9079 176.891-16.5668 179 9.98583 179 120.82 154.064 210.67 43.0653 210.67Z" fill="#FFFFFF" fill-rule="evenodd" transform="matrix(1 0 0 -1 20.2771 230.723)"/></g></g><path d="M43.0653 210.67C18.3008 217.565 17.8946 115.316 0 20.8411 113.894 17.9079 176.891-16.5668 179 9.98583 179 120.82 154.064 210.67 43.0653 210.67Z" fill="#FFFFFF" fill-rule="evenodd" transform="matrix(1 0 0 -1 3781 643)"/><path d="M2961.4 770.997C2963.88 768.402 2967.59 766.976 2971.07 768.442 2981.58 772.78 2992.73 775.335 3002.3 781.773 3014.36 785.06 3024.89 792.37 3037.15 794.945 3043.01 797.877 3048.39 802.71 3055.41 801.818 3055.49 802.314 3055.65 803.344 3055.75 803.838 3064.66 808.612 3074.51 811.089 3083.6 815.367 3093.67 822.221 3106.02 823.746 3116.63 829.668 3116.73 830.144 3116.93 831.074 3117.03 831.55 3122.51 831.788 3127.62 833.907 3132.67 835.829 3133.22 836.641 3134.33 838.245 3134.89 839.038 3142.56 839.296 3149.27 843.297 3156.3 845.871 3156.86 846.644 3157.99 848.209 3158.55 849.001 3170.17 849.12 3179.03 858.628 3190.34 859.5 3192.66 868.848 3191.69 878.536 3191.84 888.063 3191.63 897.59 3192.82 907.296 3190.24 916.626 3182.75 919.141 3175.64 924.014 3167.4 922.529 3170.71 923.123 3174.02 923.757 3177.32 924.47 3169.12 923.618 3162.23 928.689 3154.76 931.145 3154.18 931.898 3153.06 933.383 3152.51 934.136 3144.8 934.414 3138.18 938.731 3131.07 941.148 3130.5 941.861 3129.34 943.327 3128.77 944.04 3123.4 944.635 3118.31 946.556 3113.24 948.338 3113.1 948.854 3112.78 949.883 3112.62 950.399 3099.57 955.192 3086.95 960.995 3073.52 964.7 3072.92 965.492 3071.73 967.057 3071.14 967.85 3057.21 970.563 3045.98 980.784 3031.8 982.131 3031.74 982.646 3031.6 983.656 3031.52 984.151 3023.32 985.855 3016.6 992.293 3008 992.015 3007.97 992.57 3007.85 993.679 3007.81 994.254 3002.38 996.353 2996.88 998.294 2991.01 998.512 2994.12 999.166 2997.29 999.463 3000.44 1000.06 2985.92 997.64 2974.87 1014.06 2960.34 1008.81 2961.36 1000.79 2957.51 993.58 2956.07 985.915 2955.28 985.419 2953.73 984.429 2952.93 983.934 2953.45 975.019 2948.1 967.097 2947.73 958.579 2952.7 957.489 2957.54 955.885 2962.33 954.162 2962.88 953.33 2963.97 951.686 2964.53 950.874 2978.6 949.19 2990.78 940.495 3004.36 936.731 3018.41 930.571 3032.57 924.588 3047.35 920.33 3047.95 919.518 3049.13 917.933 3049.72 917.121 3071.04 911.278 3091.01 901.75 3111.54 893.806 3115.3 892.282 3117.66 889.271 3117.36 885.151 3113.93 884.418 3110.55 883.506 3107.12 882.774 3106.58 881.962 3105.53 880.357 3104.99 879.545 3099.57 879.05 3094.44 877.108 3089.33 875.346 3089.27 874.811 3089.15 873.721 3089.09 873.187 3083.6 872.969 3078.47 870.849 3073.42 868.928 3072.85 868.115 3071.73 866.512 3071.16 865.7 3056.1 864.492 3043.68 852.665 3028.37 852.804 3028.07 851.636 3027.79 850.487 3027.5 849.357 3022.39 847.575 3017.26 845.752 3011.87 845.039 3011.32 844.248 3010.23 842.623 3009.67 841.811 3002.62 839.453 2995.41 837.552 2988.35 835.175 2987.8 834.383 2986.71 832.818 2986.15 832.026 2980.73 831.471 2975.6 829.549 2970.49 827.807 2970.43 827.252 2970.31 826.163 2970.25 825.628 2961.81 824.954 2952.06 821.943 2946.93 814.891 2950.67 807.899 2952.52 800.036 2952.93 792.152 2953.73 791.657 2955.31 790.686 2956.09 790.191 2957.57 783.733 2959.13 777.236 2961.4 770.997Z" fill="#999999" fill-rule="evenodd"/><path d="M3192.27 1085.33C3281.15 1084.63 3370.09 1085.07 3458.99 1084.99 3463.77 1083.96 3464.15 1088.86 3463.87 1092.28 3463.71 1106.17 3464.01 1120.09 3463.73 1133.99 3464.07 1137.48 3459.92 1139.23 3456.97 1138.77 3371.69 1138.85 3286.4 1138.63 3201.13 1138.79 3197.84 1139.15 3194.85 1137.82 3191.94 1136.57 3192.33 1119.47 3191.74 1102.4 3192.27 1085.33M3354.13 1088.52C3353.91 1103.53 3353.85 1118.56 3354.15 1133.59 3389.6 1133.89 3425.07 1133.89 3460.52 1133.61 3460.71 1118.58 3460.69 1103.55 3460.54 1088.52 3425.09 1087.89 3389.58 1087.85 3354.13 1088.52Z" fill="#999999" fill-rule="evenodd"/><path d="M3354.11 1088.34C3389.33 1087.67 3424.6 1087.71 3459.82 1088.34 3459.97 1103.44 3459.99 1118.54 3459.8 1133.64 3424.58 1133.92 3389.35 1133.92 3354.13 1133.62 3353.84 1118.52 3353.9 1103.42 3354.11 1088.34Z" fill="#A3A3A3" fill-rule="evenodd"/><path d="M3406.01 1417.63C3421.05 1415.27 3436.64 1415.11 3451.63 1418.08 3455.84 1419.29 3462.24 1421.39 3461.66 1426.95 3461.88 1497.23 3461.55 1567.58 3461.94 1637.85 3459.04 1619.37 3462.27 1600.56 3460.21 1582 3438 1581.12 3415.94 1584.95 3393.7 1583.74 3393.09 1579.74 3392.91 1575.7 3392.94 1571.7 3393.13 1523.41 3392.85 1475.13 3393.07 1426.87 3393.33 1420.36 3400.96 1418.82 3406.01 1417.63Z" fill="#339166" fill-rule="evenodd"/><path d="M3602.21 1423.28C3606.18 1420.35 3610.57 1417.76 3615.59 1417.28 3630.3 1415.44 3645.43 1415.05 3660 1418.11 3664.19 1419.32 3670.47 1421.35 3669.82 1426.89 3669.92 1463.15 3669.8 1499.4 3669.84 1535.68 3669.48 1570.73 3670.59 1605.82 3669.29 1640.85 3668.36 1624.35 3669.64 1607.83 3668.5 1591.34 3646.34 1591.24 3623.94 1592.14 3602.11 1587.61 3601.96 1532.82 3601.78 1478.05 3602.21 1423.28Z" fill="#339166" fill-rule="evenodd"/><path d="M3050.71 1422.9C3059.86 1416.51 3071.6 1418.09 3082.16 1417.89 3096.09 1418.11 3110.38 1416.96 3123.99 1420.74 3138.56 1425.81 3145.97 1440.31 3152.79 1453.02 3171.09 1487.53 3189.61 1521.95 3207.94 1556.46 3211.75 1564.5 3217.36 1571.84 3219.94 1580.38 3216.27 1583.25 3211.93 1585.27 3207.17 1584.79 3193.85 1584.14 3180.7 1586.86 3167.4 1586.52 3160.98 1586.32 3154.6 1587.19 3148.41 1588.85 3143.65 1584.32 3141.57 1577.94 3138.44 1572.36 3125 1548.26 3113.16 1523.27 3102.59 1497.79 3103.76 1516.05 3102.95 1534.36 3103.59 1552.62 3105.09 1562.68 3105.35 1572.93 3104.24 1583.05 3083.58 1583.01 3062.92 1583.51 3042.28 1582.81L3040.94 1582.76C3041.79 1535.37 3040.98 1487.94 3041.35 1440.57 3041.51 1433.68 3044.74 1426.62 3050.71 1422.9Z" fill="#2B7956" fill-rule="evenodd"/><path d="M3259.06 1431.03C3257.84 1423.29 3266.23 1419.71 3272.45 1418.89 3284.83 1417.51 3297.45 1417.49 3309.82 1418.97 3316.04 1419.49 3322.2 1424.22 3321.75 1431.03 3322.04 1473.13 3321.79 1515.28 3321.86 1557.39 3321.71 1567.22 3322.47 1577.09 3321.13 1586.85 3312.56 1586.81 3304.03 1586.52 3295.55 1585.53 3283.47 1583.98 3271.21 1586.02 3259.24 1583.46 3258.77 1532.64 3259.14 1481.83 3259.06 1431.03Z" fill="#2B7956" fill-rule="evenodd"/><path d="M3206.63 1584.3C3211.38 1584.77 3215.71 1582.74 3219.38 1579.85 3233.56 1604.72 3245.38 1630.87 3257.31 1656.87 3258.01 1657.76 3259.38 1659.56 3260.07 1660.48 3259 1634.63 3259.18 1608.74 3258.51 1582.88 3270.58 1585.47 3282.96 1583.39 3295.14 1584.97 3303.69 1585.97 3312.31 1586.27 3320.94 1586.31 3320.23 1635.49 3320.92 1684.69 3320.58 1733.88 3320.88 1745.68 3310.58 1755.69 3299.16 1756.61 3287.39 1757.1 3275.59 1756.67 3263.83 1756.81 3253.08 1757.01 3241.97 1753.47 3234.51 1745.46 3224.15 1734.35 3218.45 1719.99 3211.21 1706.85 3190.01 1667.41 3169.38 1627.66 3147.94 1588.37 3154.12 1586.7 3160.49 1585.83 3166.91 1586.03 3180.19 1586.37 3193.32 1583.63 3206.63 1584.3Z" fill="#3EAF7C" fill-rule="evenodd"/><path d="M3393.94 1582.74C3416.38 1583.96 3438.63 1580.11 3461.05 1580.98 3463.12 1599.67 3459.87 1618.58 3462.78 1637.19 3464.9 1654.04 3469.03 1671.58 3480.73 1684.43 3496.7 1702.49 3522.7 1707.6 3545.6 1704.21 3561.84 1702.21 3577.58 1693.87 3587.39 1680.44 3598.21 1665.55 3602.04 1646.69 3601.94 1628.49 3601.74 1614.68 3602.37 1600.86 3601.52 1587.07 3623.43 1591.64 3645.92 1590.75 3668.14 1590.85 3669.29 1607.47 3668.01 1624.13 3668.94 1640.78 3667.95 1672.89 3656.17 1705.86 3632.53 1728.06 3610.21 1748.71 3579.99 1758.78 3550.22 1761.04 3517.05 1763.44 3482.21 1761.2 3452.31 1745.22 3424.63 1731.13 3405.38 1703.22 3398.83 1672.91 3391.29 1643.42 3395.97 1612.76 3393.94 1582.74Z" fill="#3EAF7C" fill-rule="evenodd"/><path d="M3042.5 1582.85C3063.29 1583.55 3084.11 1583.05 3104.92 1583.09 3103.36 1637.81 3104.88 1692.66 3104.16 1747.42 3104.72 1752.65 3098.73 1754.31 3094.79 1755.62 3080.75 1758.62 3066.09 1758.5 3052.01 1755.86 3047.07 1754.73 3041.46 1751.38 3042.04 1745.59 3041.84 1694.7 3042.06 1643.81 3041.92 1592.91 3041.92 1589.53 3042.12 1586.18 3042.5 1582.85Z" fill="#3EAF7C" fill-rule="evenodd"/></g></svg>